<svg width="35" height="34" viewBox="0 0 35 34" fill="none" xmlns="http://www.w3.org/2000/svg">
<g clip-path="url(#clip0_418_198)">
<path fill-rule="evenodd" clip-rule="evenodd" d="M27.5378 17.2221C27.5359 16.5368 27.4725 15.8529 27.3482 15.1776H17.2979V19.0443H23.0341C22.9188 19.6569 22.6711 20.241 22.3063 20.7608C21.9415 21.2805 21.4672 21.7248 20.9127 22.0665V24.5776H24.409C25.4586 23.6286 26.2837 22.4834 26.8309 21.2163C27.3781 19.9491 27.6351 18.5883 27.5853 17.2221H27.5378Z" fill="#4285F4"/>
<path fill-rule="evenodd" clip-rule="evenodd" d="M17.2979 26.9998C19.9116 27.0753 22.4566 26.2084 24.409 24.5776L20.9601 22.0664C19.8833 22.7148 18.6248 23.0475 17.3453 23.022C16.0231 22.9972 14.7421 22.587 13.6801 21.8482C12.6181 21.1094 11.8279 20.0789 11.4194 18.8998H7.81641V21.4442C8.6937 23.1021 10.0445 24.4992 11.7185 25.48C13.3924 26.4608 15.3239 26.987 17.2979 26.9998Z" fill="#34A853"/>
<path fill-rule="evenodd" clip-rule="evenodd" d="M11.372 18.9C10.9294 17.6673 10.9294 16.3327 11.372 15.1V12.5555H7.81648C7.08545 13.9369 6.70508 15.458 6.70508 17C6.70508 18.542 7.08545 20.0631 7.81648 21.4444L11.372 18.8555V18.9Z" fill="#FBBC05"/>
<path fill-rule="evenodd" clip-rule="evenodd" d="M17.2979 10.9776C18.8153 10.9512 20.2817 11.4907 21.3749 12.4776L24.409 9.59983C22.484 7.90738 19.9369 6.9761 17.2979 6.99983C15.3239 7.01266 13.3924 7.53877 11.7185 8.51961C10.0445 9.50045 8.6937 10.8975 7.81641 12.5554L11.372 15.1443C11.7805 13.9652 12.5707 12.9346 13.6327 12.1959C14.6947 11.4571 15.9757 11.0468 17.2979 11.0221V10.9776Z" fill="#EA4335"/>
</g>
<defs>
<clipPath id="clip0_418_198">
<rect width="21.3333" height="20" fill="white" transform="translate(6.6311 7)"/>
</clipPath>
</defs>
</svg>
