<svg width="20" height="20" viewBox="0 0 20 20" fill="none" xmlns="http://www.w3.org/2000/svg">
<path d="M7.64991 3.44649L7.87583 3.37872L7.9672 3.16126L9.08537 0.5H10.9146L12.0328 3.16126L12.1096 3.34399L12.2907 3.42449C12.3964 3.47146 12.5092 3.52488 12.6288 3.58154L12.6318 3.58295C12.7482 3.63809 12.8712 3.69635 12.9889 3.74868L13.1864 3.83645L13.3857 3.75273L16.0436 2.63598L17.364 3.95642L16.2473 6.6143L16.1531 6.83835L16.2712 7.0508C16.3913 7.26703 16.4981 7.48432 16.5581 7.66435L16.6298 7.87939L16.8387 7.9672L19.5 9.08537V10.9146L16.8387 12.0328L16.656 12.1096L16.5755 12.2907C16.5285 12.3964 16.4751 12.5092 16.4185 12.6288L16.4171 12.6318C16.3619 12.7482 16.3037 12.8712 16.2513 12.9889L16.1635 13.1864L16.2473 13.3857L17.364 16.0436L16.0436 17.364L13.3857 16.2473L13.1616 16.1531L12.9492 16.2711C12.8003 16.3539 12.6442 16.4215 12.4706 16.4968C12.4127 16.5219 12.3529 16.5479 12.2907 16.5755L12.1096 16.656L12.0328 16.8387L10.9146 19.5H9.08537L7.9672 16.8387L7.88616 16.6459L7.69193 16.5682C7.58481 16.5253 7.47974 16.4758 7.36649 16.4207C7.34601 16.4107 7.32497 16.4004 7.30347 16.3899C7.21113 16.3448 7.11049 16.2955 7.01105 16.2513L6.81355 16.1635L6.6143 16.2473L3.95642 17.364L2.63598 16.0436L3.75273 13.3857L3.84173 13.1739L3.73898 12.9684C3.61348 12.7174 3.52278 12.5355 3.43182 12.3081L3.35413 12.1138L3.16126 12.0328L0.5 10.9146V9.08537L3.16126 7.9672L3.35413 7.88616L3.43182 7.69193C3.52278 7.46454 3.61348 7.28258 3.73898 7.03159L3.84173 6.8261L3.75273 6.6143L2.63598 3.95642L3.95642 2.63598L6.6143 3.75273L6.83835 3.84688L7.0508 3.72885C7.28289 3.59991 7.46084 3.50321 7.64991 3.44649ZM14.2406 9.97506C14.2406 7.62909 12.346 5.73441 10 5.73441C7.65403 5.73441 5.75935 7.62909 5.75935 9.97506C5.75935 12.321 7.65403 14.2157 10 14.2157C12.346 14.2157 14.2406 12.321 14.2406 9.97506Z" fill="white" stroke="#909090"/>
</svg>
